<svg width="124" height="120" viewBox="0 0 124 120" fill="none" xmlns="http://www.w3.org/2000/svg">
<g clip-path="url(#clip0_62_78)">
<path d="M104.796 27.5946C104.786 27.4155 104.75 27.2428 104.688 27.0735C104.668 27.0201 104.655 26.967 104.63 26.9158C104.537 26.7197 104.419 26.5335 104.256 26.3749C104.256 26.3749 97.6228 19.9258 90.9821 13.4824C87.6626 10.2596 84.3394 7.04062 81.8427 4.6273C79.9967 2.84399 78.7806 1.66837 77.9237 0.937865C77.9103 0.91949 77.8972 0.90299 77.884 0.884615C77.8821 0.881053 77.8801 0.879178 77.8782 0.875615L77.8631 0.88649C76.6596 -0.128822 76.1839 -0.23926 75.6398 0.0791155L25.138 0.080803C21.8299 0.080803 19.1383 2.68837 19.1383 5.89255V100.703C19.1383 102.327 19.7908 103.854 20.9826 105.009C22.1551 106.139 23.7743 106.787 25.4235 106.787H50.8953C51.9658 106.787 52.8321 105.949 52.8321 104.912C52.8321 103.876 51.9658 103.037 50.8953 103.037H25.4235C24.79 103.037 24.1677 102.787 23.7193 102.356C23.2692 101.92 23.012 101.318 23.012 100.703V5.89255C23.012 4.75555 23.9653 3.8308 25.138 3.8308L74.4543 3.82912C74.5273 8.10843 74.4448 19.9687 74.3602 27.6767C74.3545 28.1784 74.557 28.6599 74.9201 29.0152C75.2833 29.3722 75.7806 29.5717 76.297 29.5717H100.944V101.009C100.944 101.543 100.721 102.065 100.329 102.444C99.934 102.827 99.4082 103.037 98.8485 103.037H97.967C96.8965 103.037 96.0302 103.876 96.0302 104.912C96.0302 105.949 96.8965 106.787 97.967 106.787H98.8485C100.445 106.787 101.945 106.185 103.07 105.094C104.18 104.019 104.818 102.53 104.818 101.009V27.6967C104.818 27.6606 104.799 27.6304 104.796 27.5946ZM78.2547 25.8217C78.3587 15.9525 78.3909 10.0875 78.3607 6.56099C82.8924 10.9372 91.2013 19.0011 98.2205 25.8217H78.2547Z" fill="black"/>
<path d="M89.9265 92.6792C89.8547 92.4405 89.7342 92.229 89.5847 92.0447C92.3847 88.7933 94.0727 84.6128 94.0727 80.0485C94.0727 69.6932 85.4012 61.2985 74.7045 61.2985C64.0077 61.2985 55.3364 69.6932 55.3364 80.0485C55.3364 84.8687 57.2314 89.25 60.3189 92.5716L53.7815 114.267C53.5679 114.976 53.8042 115.741 54.385 116.221C54.9657 116.699 55.7809 116.8 56.4712 116.486L63.0591 113.456L67.1994 119.268C67.5643 119.781 68.1639 120.079 68.7938 120.079C68.9034 120.079 69.0132 120.07 69.1228 120.052C69.8681 119.927 70.4695 119.396 70.6643 118.689L75.1085 102.637L79.5522 118.689C79.747 119.394 80.3467 119.925 81.0898 120.052C81.2016 120.07 81.3131 120.079 81.4228 120.079C82.0507 120.079 82.6466 119.784 83.0135 119.273L87.1652 113.491L93.7492 116.49C94.4376 116.801 95.251 116.697 95.8334 116.217C96.4123 115.739 96.6469 114.976 96.4331 114.267L89.9265 92.6792ZM74.7045 64.87C83.3499 64.87 90.3834 71.679 90.3834 80.0485C90.3834 88.4181 83.3499 95.2271 74.7045 95.2271C66.059 95.2271 59.0254 88.4181 59.0254 80.0485C59.0254 71.679 66.059 64.87 74.7045 64.87ZM68.0088 113.798L65.3118 110.014C64.7708 109.256 63.7437 108.986 62.8869 109.384L58.7088 111.305L63.5202 95.3389C66.0386 97.0688 68.9987 98.2249 72.2091 98.6256L68.0088 113.798ZM87.3335 109.422C86.4767 109.032 85.4571 109.3 84.9181 110.05L82.2134 113.817L77.9764 98.5108C81.1702 97.9836 84.0923 96.7048 86.5489 94.8612L91.5116 111.327L87.3335 109.422Z" fill="#E8BB1F"/>
<path d="M74.7045 89.4235C80.0528 89.4235 84.3886 85.2263 84.3886 80.0485C84.3886 74.8708 80.0528 70.6735 74.7045 70.6735C69.3562 70.6735 65.0205 74.8708 65.0205 80.0485C65.0205 85.2263 69.3562 89.4235 74.7045 89.4235ZM74.7045 74.4235C77.9084 74.4235 80.515 76.9468 80.515 80.0485C80.515 83.1503 77.9084 85.6735 74.7045 85.6735C71.5005 85.6735 68.8941 83.1503 68.8941 80.0485C68.8941 76.9468 71.5005 74.4235 74.7045 74.4235Z" fill="#E8BB1F"/>
</g>
<defs>
<clipPath id="clip0_62_78">
<rect width="123.956" height="120" fill="white"/>
</clipPath>
</defs>
</svg>