<svg width="220" height="220" viewBox="0 0 220 220" fill="none" xmlns="http://www.w3.org/2000/svg">
<g clip-path="url(#clip0_118_15)">
<path d="M110 209.9C165.228 209.9 210 165.151 210 109.95C210 54.7491 165.228 10 110 10C54.7715 10 10 54.7491 10 109.95C10 165.151 54.7715 209.9 110 209.9Z" stroke="#234264" stroke-opacity="0.34" stroke-width="20" stroke-miterlimit="10"/>
<path d="M190.91 168.69C202.92 152.2 210 131.9 210 109.94C210 54.74 165.23 9.98999 110 9.98999" stroke="#CB2E2E" stroke-width="20" stroke-miterlimit="10"/>
<path d="M15.48 142.59C22.11 161.88 34.69 179.32 52.68 191.91C97.92 223.57 160.28 212.58 191.95 167.37" stroke="#CB2E2E" stroke-width="20" stroke-miterlimit="10"/>
<path d="M70.9601 103V79.2H79.1151L84.8551 98.8H85.2051V79.2H90.0351V103H82.0901L76.1401 83.4H75.7901V103H70.9601ZM93.2277 103V79.2H98.0577V103H93.2277ZM114.122 79.2H119.197L113.667 103H104.742L99.2123 79.2H104.287L108.417 98.8H109.992L114.122 79.2ZM120.331 103V79.2H135.731V83.4H125.161V88.965H133.631V93.095H125.161V98.8H135.731V103H120.331ZM151.256 103H137.711V79.2H142.541V98.73H151.256V103ZM103.575 143V119.2H108.405V143H103.575ZM111.59 143V119.2H116.42V143H111.59Z" fill="#234264"/>
</g>
<defs>
<clipPath id="clip0_118_15">
<rect width="220" height="220" fill="white"/>
</clipPath>
</defs>
</svg>
