<?xml version="1.0" encoding="UTF-8"?>
<svg id="Layer_1" data-name="Layer 1" xmlns="http://www.w3.org/2000/svg" viewBox="0 0 1237.56 572.34">
  <defs>
    <style>
      .clslogo-1 {
        fill: #e93535;
      }

      .clslogo-2 {
        fill: #2b4162;
      }
    </style>
  </defs>
  <g>
    <path class="clslogo-2" d="m470.52,446.73v-82.99h35.07c3.58,0,6.86.74,9.82,2.22,2.96,1.48,5.55,3.49,7.77,6.02,2.22,2.53,3.93,5.34,5.14,8.42,1.21,3.08,1.81,6.21,1.81,9.41,0,3.98-.76,7.72-2.28,11.22-1.52,3.51-3.66,6.47-6.43,8.88-2.77,2.42-6.02,4.02-9.76,4.79l20.34,32.03h-9.23l-19.52-30.62h-24.55v30.62h-8.18Zm8.18-37.87h27.12c3.27,0,6.12-.9,8.53-2.69,2.41-1.79,4.28-4.15,5.61-7.07,1.32-2.92,1.99-6.02,1.99-9.29s-.76-6.45-2.28-9.29c-1.52-2.84-3.55-5.14-6.08-6.9-2.53-1.75-5.36-2.63-8.47-2.63h-26.42v37.87Z"/>
    <path class="clslogo-2" d="m546.85,446.73v-82.99h34.36c3.58,0,6.88.74,9.88,2.22,3,1.48,5.59,3.49,7.77,6.02,2.18,2.53,3.9,5.34,5.14,8.42,1.25,3.08,1.87,6.21,1.87,9.41,0,4.52-.99,8.79-2.98,12.8-1.99,4.02-4.77,7.27-8.36,9.76-3.59,2.49-7.79,3.74-12.62,3.74h-26.88v30.62h-8.18Zm8.18-37.87h26.53c3.27,0,6.12-.9,8.53-2.69,2.41-1.79,4.28-4.13,5.61-7.01,1.32-2.88,1.99-6,1.99-9.35s-.78-6.58-2.34-9.47c-1.56-2.88-3.61-5.16-6.14-6.84-2.53-1.68-5.32-2.51-8.36-2.51h-25.83v37.87Z"/>
    <path class="clslogo-2" d="m681.97,425.34c0,4.13-1.05,7.81-3.16,11.05-2.1,3.23-4.93,5.77-8.47,7.6-3.55,1.83-7.42,2.75-11.63,2.75h-39.16v-82.99h39.97c3.9,0,7.27,1.03,10.11,3.1,2.84,2.06,5.03,4.72,6.55,7.95,1.52,3.24,2.28,6.61,2.28,10.11,0,4.13-1.05,7.95-3.16,11.46-2.1,3.51-5.03,6.12-8.77,7.83,4.75,1.4,8.51,4.01,11.28,7.83,2.76,3.82,4.15,8.26,4.15,13.32Zm-54.23-54.47v30.62h28.52c2.73,0,5.14-.72,7.25-2.16,2.1-1.44,3.78-3.33,5.03-5.67,1.25-2.34,1.87-4.83,1.87-7.48,0-2.8-.58-5.36-1.75-7.66-1.17-2.3-2.77-4.15-4.79-5.55-2.03-1.4-4.32-2.1-6.9-2.1h-29.22Zm46.05,53.07c0-2.81-.63-5.4-1.87-7.77-1.25-2.38-2.94-4.3-5.08-5.79-2.14-1.48-4.58-2.22-7.31-2.22h-31.79v31.44h30.97c2.81,0,5.34-.74,7.6-2.22,2.26-1.48,4.07-3.41,5.44-5.79,1.36-2.38,2.05-4.93,2.05-7.66Z"/>
    <path class="clslogo-2" d="m697.4,446.73v-82.99h8.18v82.99h-8.18Z"/>
    <path class="clslogo-2" d="m753.38,418.56v-7.36h34.13v7.36h-34.13Z"/>
    <path class="clslogo-2" d="m908.84,446.73v-67.56l-30.04,52.48h-5.14l-30.16-52.48v67.56h-8.18v-82.99h8.42l32.38,56.81,32.61-56.81h8.3v82.99h-8.18Z"/>
    <path class="clslogo-2" d="m996.74,370.99h-29.57v75.74h-8.18v-75.74h-29.57v-7.25h67.33v7.25Z"/>
    <path class="clslogo-2" d="m1009.59,363.74l27.12,44.65,27.35-44.65h8.88l-32.14,52.13v30.86h-8.18v-31.09l-32.03-51.9h9Z"/>
  </g>
  <g>
    <path class="clslogo-2" d="m451.99,227.29c0-11.06,2.03-22.01,6.1-32.82,4.06-10.81,10.12-20.66,18.16-29.57,8.04-8.9,17.77-15.99,29.18-21.27,11.42-5.27,24.3-7.91,38.65-7.91,17.29,0,32.3,3.72,45.01,11.15,12.71,7.44,22.26,17.12,28.66,29.05l-20.48,14.35c-6.06,4.25-14.29,3.05-19.07-2.6-1.28-1.52-2.67-2.88-4.17-4.1-4.58-3.72-9.6-6.31-15.05-7.78-5.45-1.47-10.77-2.21-15.95-2.21-7.96,0-14.96,1.6-21.01,4.8-6.06,3.2-11.07,7.48-15.05,12.84-3.98,5.36-6.96,11.33-8.95,17.9-1.99,6.57-2.98,13.06-2.98,19.45,0,7.44,1.17,14.53,3.5,21.27,2.34,6.75,5.62,12.71,9.86,17.9,4.24,5.19,9.34,9.3,15.31,12.32,5.97,3.03,12.67,4.54,20.1,4.54,5.19,0,10.46-.82,15.82-2.46,5.36-1.64,10.33-4.37,14.92-8.17,1.66-1.38,3.18-2.91,4.55-4.61,4.41-5.43,12.15-6.76,18.16-3.2l22.81,13.52c-3.81,8.99-9.86,16.69-18.16,23.09-8.3,6.4-17.64,11.29-28.02,14.66-10.38,3.37-20.75,5.06-31.13,5.06-13.32,0-25.51-2.72-36.58-8.17-11.07-5.45-20.67-12.71-28.79-21.79-8.13-9.08-14.4-19.28-18.81-30.61-4.41-11.33-6.62-22.87-6.62-34.63Z"/>
    <path class="clslogo-2" d="m641.09,307.03v-170.01h28.37c7.83,0,14.17,6.35,14.17,14.17v170.01h-28.37c-7.83,0-14.17-6.35-14.17-14.17Z"/>
    <path class="clslogo-2" d="m718.91,321.2v-184.18h82.75c8.82,0,16.95,1.82,24.39,5.45,7.43,3.63,13.79,8.39,19.07,14.27,5.27,5.88,9.42,12.54,12.45,19.97,3.02,7.44,4.54,15.05,4.54,22.83s-1.26,14.62-3.76,21.53c-2.51,6.92-6.01,13.06-10.51,18.42-4.5,5.36-9.77,9.77-15.82,13.23l40.47,68.48h-38.89c-5,0-9.63-2.64-12.19-6.94l-31.16-52.47h-28.79v45.23c0,7.83-6.35,14.17-14.17,14.17h-28.37Zm42.54-96.76h39.17c3.28,0,6.27-1.04,8.95-3.11,2.68-2.08,4.88-5.01,6.62-8.82,1.73-3.8,2.59-8.13,2.59-12.97,0-5.19-1-9.64-2.98-13.36-1.99-3.72-4.5-6.62-7.52-8.69-3.03-2.08-6.1-3.11-9.21-3.11h-37.62v50.07Z"/>
    <path class="clslogo-2" d="m954.53,137.02h25.46c6.04,0,11.41,3.83,13.39,9.53l60.51,174.65h-33.06c-6.25,0-11.76-4.09-13.57-10.07l-9.44-31.18h-60.82l-9.51,31.2c-1.82,5.97-7.32,10.04-13.56,10.04h-33.08l60.26-174.63c1.97-5.71,7.35-9.55,13.4-9.55Zm34.5,113.88l-21.52-71.08-21.65,71.08h43.17Z"/>
    <path class="clslogo-2" d="m1180.85,174.37h-41.86v132.65c0,7.83-6.35,14.17-14.17,14.17h-28.37v-146.83h-42.12c-7.83,0-14.17-6.35-14.17-14.17v-23.18h154.87v23.18c0,7.83-6.35,14.17-14.17,14.17Z"/>
  </g>
  <g>
    <path class="clslogo-2" d="m356.18,309.06h-98.86c-29.04,0-52.59,23.55-52.59,52.59h109.38c.98,20.47-3.8,41.14-14.36,59.9-19.09,33.95-53.56,54.74-92.09,55.61-1.97.03-4.01.03-5.77,0-38.63-.87-73.1-21.67-92.2-55.62-19.49-34.64-19.29-75.8.5-110.1l1.38-2.39h-58.32c-17.21,45.02-13.7,95.1,10.58,138.27,28.31,50.32,79.47,81.13,136.95,82.42,1.31.02,2.62.04,3.92.04s2.63-.02,4.04-.04c57.38-1.29,108.54-32.1,136.84-82.41,24.29-43.17,27.8-93.25,10.59-138.28Z"/>
    <polygon class="clslogo-1" points="204.73 147.73 267.31 256.15 328.05 256.15 204.73 42.54 81.4 256.15 142.13 256.15 204.73 147.73"/>
  </g>
</svg>