<svg id="Capa_1" data-name="Capa 1" xmlns="http://www.w3.org/2000/svg" viewBox="0 0 252.8 237.28">
  <path d="M157.17,98.46l6.94-8.17s-33.61-25.65-71.9-.08l6.93,8.19S126,79,157.17,98.46Z"
    transform="translate(-1.6 -9.36)" style="fill: #CB2E2E;"/>
  <path
    d="M145.86,9.36S179,22.6,178.67,60.07s-27,50.77-27,50.77-7.85,4.63-21.36,6.43v9.28s15,1.41,13.13,20.58l8.24,4.64s11.77-19.48,38.2-21.22a59.6,59.6,0,0,1,43,14.34S257,165.43,252.2,193.71c0,0,11.4-36.5-17.73-66.71,0,0-18.79-18.76-44.6-20.18,0,0,16.61-27.47,0-62.21C189.87,44.61,179.31,19.67,145.86,9.36Z"
    transform="translate(-1.6 -9.36)" style="fill: #CB2E2E;"/>
  <path
    d="M110.14,9.36S77,22.59,77.33,60.07s27,50.77,27,50.77,7.85,4.63,21.36,6.43v9.28s-15,1.41-13.13,20.57l-8.24,4.65s-11.77-19.48-38.2-21.22a59.57,59.57,0,0,0-42.95,14.33S-1,165.43,3.8,193.71c0,0-11.4-36.5,17.73-66.71,0,0,18.79-18.76,44.6-20.18,0,0-16.61-27.47,0-62.22C66.13,44.6,76.69,19.67,110.14,9.36Z"
    transform="translate(-1.6 -9.36)" style="fill: #CB2E2E;"/>
  <path
    d="M21.76,224.51s26.49,22.34,60.58,3.83c31.51-17.11,30.47-48.07,30.47-48.07s.58-9.13-4.68-21.69l8-4.68s8.21,11.23,23.84,0l8,4.65s-11.72,20.61,1.62,44.77c12.8,23.19,34,29.86,34,29.86s28.82,9.77,50.8-8.67c0,0-24.66,29-65.44,19.07,0,0-25.67-6.76-39.91-28.33,0,0-15.35,28.19-53.73,31.37C75.39,246.62,47.52,248.2,21.76,224.51Z"
    transform="translate(-1.6 -9.36)" style="fill: #CB2E2E;"/>
  <path d="M104.4,189.69l-3.64,10.09s-38.94-17-35.86-62.25l10.54,1.82S71.33,172.55,104.4,189.69Z"
    transform="translate(-1.6 -9.36)" style="fill: #CB2E2E;"/>
  <path d="M181,139.5l10.57-1.81s4.49,42.24-36.42,61.93l-3.62-10.07S182.46,176.73,181,139.5Z"
    transform="translate(-1.6 -9.36)" style="fill: #CB2E2E;"/>
</svg>