<svg id="Capa_1" data-name="Capa 1" xmlns="http://www.w3.org/2000/svg" viewBox="0 0 251.58 129.89">
  <defs>
    <style>
      .cls-1 {
        fill: none;
        stroke: #CB2E2E;
        stroke-linecap: round;
        stroke-linejoin: round;
        stroke-width: 10px;
      }
    </style>
  </defs>
  <path style="fill: #CB2E2E;" d="M88.62,88.72l1.77-2.09a16.11,16.11,0,0,0-18.4,0l1.78,2.09A13.66,13.66,0,0,1,88.62,88.72Z"
    transform="translate(-2.21 -53.02)" />
  <path style="fill: #CB2E2E;"
    d="M85.72,65.92s8.48,3.38,8.4,13-6.9,13-6.9,13a15.78,15.78,0,0,1-5.47,1.64v2.38s3.83.36,3.36,5.26l2.11,1.19A12.73,12.73,0,0,1,97,96.93a15.27,15.27,0,0,1,11,3.67s6.19,5.26,5,12.5A18.09,18.09,0,0,0,108.4,96s-4.81-4.8-11.41-5.16a17.51,17.51,0,0,0,0-15.92S94.28,68.55,85.72,65.92Z"
    transform="translate(-2.21 -53.02)" />
  <path style="fill: #CB2E2E;"
    d="M76.58,65.92s-8.48,3.38-8.4,13,6.9,13,6.9,13a15.78,15.78,0,0,0,5.47,1.64v2.38s-3.83.36-3.36,5.26l-2.11,1.19a12.72,12.72,0,0,0-9.77-5.43,15.28,15.28,0,0,0-11,3.67s-6.18,5.26-5,12.5A18.12,18.12,0,0,1,53.9,96s4.81-4.8,11.42-5.16a17.51,17.51,0,0,1,0-15.92S68,68.55,76.58,65.92Z"
    transform="translate(-2.21 -53.02)" />
  <path style="fill: #CB2E2E;"
    d="M54,121a14.07,14.07,0,0,0,15.5,1,14.28,14.28,0,0,0,7.8-12.3,13.59,13.59,0,0,0-1.19-5.55l2.05-1.2s2.1,2.87,6.1,0l2.06,1.19a12.24,12.24,0,0,0,.41,11.46,16.78,16.78,0,0,0,8.71,7.64s7.37,2.5,13-2.22a17.26,17.26,0,0,1-16.75,4.88s-6.57-1.73-10.21-7.25a17.51,17.51,0,0,1-13.75,8A20.34,20.34,0,0,1,54,121Z"
    transform="translate(-2.21 -53.02)" />
  <path style="fill: #CB2E2E;" d="M75.11,112.07l-.93,2.58A16.33,16.33,0,0,1,65,98.72l2.7.46A13.28,13.28,0,0,0,75.11,112.07Z"
    transform="translate(-2.21 -53.02)" />
  <path style="fill: #CB2E2E;" d="M94.72,99.22l2.71-.46a16.34,16.34,0,0,1-9.32,15.85L87.18,112A13.26,13.26,0,0,0,94.72,99.22Z"
    transform="translate(-2.21 -53.02)" />
  <path class="cls-1" d="M168.74,56.13H38.17S31.1,54.63,26.43,63L5.21,101.87v45.66S8.65,158.7,15.5,158.7h6.86"
    transform="translate(-2.21 -53.02)" />
  <path class="cls-1" d="M89.24,158.7h48.17s9.35-2.32,10.08-9.06.73-73,.73-73" transform="translate(-2.21 -53.02)" />
  <path class="cls-1" d="M127.71,117.67v16.67s-1.41,6.41-6.6,6.41H104.63" transform="translate(-2.21 -53.02)" />
  <circle class="cls-1" cx="48.57" cy="104.39" r="22.5" />
  <circle class="cls-1" cx="202.43" cy="104.39" r="22.5" />
  <polyline class="cls-1" points="248.58 74.9 248.58 94.14 245.71 100.55" />
  <path class="cls-1"
    d="M197.8,92l5.06,13.73s3.24,5.32,7.82,6,33.57.73,33.57.73c6.61,0,3.62-5.85,3.62-5.85L234,78.94a12.68,12.68,0,0,0-12-7.43H181.56s-12.82.87-12.82,13.43v63.7s5.68,11.06,13.39,8.77"
    transform="translate(-2.21 -53.02)" />
</svg>